<svg id="loupe" xmlns="http://www.w3.org/2000/svg" width="12.547" height="12.547" viewBox="0 0 12.547 12.547">
  <g id="Group_59" data-name="Group 59" transform="translate(0 0)">
    <g id="Group_58" data-name="Group 58">
      <path id="Path_35" data-name="Path 35" d="M5.525,0a5.525,5.525,0,1,0,5.525,5.525A5.532,5.532,0,0,0,5.525,0Zm0,10.031a4.505,4.505,0,1,1,4.505-4.505A4.51,4.51,0,0,1,5.525,10.031Z" transform="translate(0 0)" fill="#6e7bcf"/>
    </g>
  </g>
  <g id="Group_61" data-name="Group 61" transform="translate(8.603 8.603)">
    <g id="Group_60" data-name="Group 60">
      <path id="Path_36" data-name="Path 36" d="M354.841,354.119l-2.924-2.924a.51.51,0,0,0-.721.721l2.924,2.924a.51.51,0,0,0,.721-.721Z" transform="translate(-351.046 -351.046)" fill="#6e7bcf"/>
    </g>
  </g>
</svg>
